<svg width="18" height="16" viewBox="0 0 18 16" fill="none" xmlns="http://www.w3.org/2000/svg">
<path d="M9.00083 1.77415C10.9583 0.0166498 13.9833 0.0749833 15.8692 1.96415C17.7542 3.85415 17.8192 6.86415 16.0658 8.82748L8.99916 15.9042L1.93416 8.82748C0.180828 6.86415 0.246662 3.84915 2.13083 1.96415C4.01833 0.0774834 7.0375 0.0141498 9.00083 1.77415ZM14.6892 3.14165C13.4392 1.88998 11.4225 1.83915 10.1142 3.01415L9.00166 4.01248L7.88833 3.01498C6.57583 1.83832 4.56333 1.88998 3.31 3.14332C2.06833 4.38498 2.00583 6.37248 3.15 7.68582L9 13.545L14.85 7.68665C15.995 6.37248 15.9325 4.38748 14.6892 3.14165Z" fill="#9d9d9d"/>
</svg>
